<svg xmlns="http://www.w3.org/2000/svg" viewBox="0 0 130.55 36.17">
  <g fill="#00f" style="line-height:25px;-inkscape-font-specification:'DisposableDroid BB, Normal';font-variant-ligatures:normal;font-variant-caps:normal;font-variant-numeric:normal;font-feature-settings:normal;text-align:start" font-size="192" font-family="DisposableDroid BB" letter-spacing="0" word-spacing="0">
    <path d="M19 9.14v3.36h3.76v14.68h-4.32V13.72H13.6v13.46H9.3V13.72H4.57v13.46H0v-18z" style="-inkscape-font-specification:'DisposableDroid BB, Normal';font-variant-ligatures:normal;font-variant-caps:normal;font-variant-numeric:normal;font-feature-settings:normal;text-align:start"/>
    <path d="M35.05 9.2v17.88h-4.57V9.18zm0-9.1v4.52h-4.57V.1z" style="-inkscape-font-specification:'DisposableDroid BB, Normal';font-variant-ligatures:normal;font-variant-caps:normal;font-variant-numeric:normal;font-feature-settings:normal;text-align:start"/>
    <path d="M45.97 27.13v-3.36H42.2V12.55h3.77V9.2h9.55V4.6h4.57v5.44h-3.8v2.5h3.75V32.8H56.2v3.35H46V31.6h9.76v-4.47zm9.8-13.3h-9.24v8.73h9.25z" style="-inkscape-font-specification:'DisposableDroid BB, Normal';font-variant-ligatures:normal;font-variant-caps:normal;font-variant-numeric:normal;font-feature-settings:normal;text-align:start"/>
    <path d="M72.1 0v9.14h9.55v3.36h3.76v14.68h-4.3V13.72h-9v13.46h-4.54V0z" style="-inkscape-font-specification:'DisposableDroid BB, Normal';font-variant-ligatures:normal;font-variant-caps:normal;font-variant-numeric:normal;font-feature-settings:normal;text-align:start"/>
    <path d="M96.44 8.94h9.25v4.57h-9.3v9h9.2l-.05 4.66h-9.72v-3.3H92.1V4.66h4.3z" style="-inkscape-font-specification:'DisposableDroid BB, Normal';font-variant-ligatures:normal;font-variant-caps:normal;font-variant-numeric:normal;font-feature-settings:normal;text-align:start"/>
    <path d="M116.43 27.13v-3.36h-3.76V9.2H117v13.36h9.23V9.2h4.32v23.6h-3.86v3.35h-10.25V31.6h9.75v-4.47z" style="-inkscape-font-specification:'DisposableDroid BB, Normal';font-variant-ligatures:normal;font-variant-caps:normal;font-variant-numeric:normal;font-feature-settings:normal;text-align:start"/>
  </g>
</svg>
