<svg xmlns="http://www.w3.org/2000/svg" viewBox="0 0 130.55 36.17">
  <g id="music" style="line-height:25px;-inkscape-font-specification:'DisposableDroid BB, Normal';font-variant-ligatures:normal;font-variant-caps:normal;font-variant-numeric:normal;font-feature-settings:normal;text-align:start" font-size="192" font-family="DisposableDroid BB" letter-spacing="0" word-spacing="0">
    <path d="M19.02 9.14v3.35h3.76v14.65h-4.32V13.7h-4.82v13.5H9.32V13.7H4.6v13.5H.02v-18z" style="-inkscape-font-specification:'DisposableDroid BB, Normal';font-variant-ligatures:normal;font-variant-caps:normal;font-variant-numeric:normal;font-feature-settings:normal;text-align:start"/>
    <path d="M33.14 27.18v-3.36h-3.76V9.14h4.32v13.4h9V9.14h4.56V27.1z" style="-inkscape-font-specification:'DisposableDroid BB, Normal';font-variant-ligatures:normal;font-variant-caps:normal;font-variant-numeric:normal;font-feature-settings:normal;text-align:start"/>
    <path d="M71.93 9v4.56h-13.4v3.35l13.45.1v6.8h-3.4v3.36H53.95V22.6H67.4v-3.4H53.96v-6.86h3.35v-3.4z" style="-inkscape-font-specification:'DisposableDroid BB, Normal';font-variant-ligatures:normal;font-variant-caps:normal;font-variant-numeric:normal;font-feature-settings:normal;text-align:start"/>
    <path d="M83.8 9.2v17.87h-4.6V9.2zm0-9.1v4.52h-4.6V.1z" style="-inkscape-font-specification:'DisposableDroid BB, Normal';font-variant-ligatures:normal;font-variant-caps:normal;font-variant-numeric:normal;font-feature-settings:normal;text-align:start"/>
    <path d="M108.73 9.14v4.57H95.17v8.88h13.56v4.58H94.6v-3.3h-3.75V12.48h3.76V9.13z" style="-inkscape-font-specification:'DisposableDroid BB, Normal';font-variant-ligatures:normal;font-variant-caps:normal;font-variant-numeric:normal;font-feature-settings:normal;text-align:start"/>
  </g>
</svg>
