<svg xmlns="http://www.w3.org/2000/svg" viewBox="0 0 45.78 21.92">
  <g fill="none">
    <path d="M-23.74-22.74l-.13-.37h111v58l-.37-.2q-.38-.1-.5-.5l-.13-.4-.12-.4q-.1-.4-.3-.6l-.5-.5-.5-.5-.5-.5-.5-.5-.5-.5-.5-.5-.5-.5-.5-.5-.5-.5q-.2-.3-.6-.4l-.3-.1-.33-.2q-.4-.1-.63-.4l-.5-.5-.5-.5-.5-.5-.5-.5-.5-.5-.5-.5-.5-.5-.5-.5-.5-.5-.5-.5-.5-.5-.5-.5-.5-.5-.5-.5-.5-.5-.5-.5-.5-.5-.5-.5-.5-.5-.5-.5-.5-.5-.5-.5-.5-.5-.5-.5-.5-.5-.5-.5-.5-.5-.5-.5-.5-.5-.5-.5-.5-.5-.5-.5-.5-.5-.5-.5-.5-.5-.5-.5-.5-.5-.5-.5-.5-.5-.5-.5-.5-.5-.5-.5-.5-.5-.5-.5-.5-.5-.5-.5-.5-.5-.5-.5-.5-.5-.5-.5-.5-.5-.5-.5-.5-.5-.5-.5-.5-.5-.5-.5-.5-.5-.5-.5-.5-.5-.5-.5-.5-.5-.5-.5-.5-.5-.5-.5-.5-.5-.5-.5-.5-.5-.5-.5-.5-.5-.5-.5-.5-.5-.5-.5-.5-.5-.5-.5-.5-.5-.5-.5-.5-.5-.5-.5-.5-.5-.5-.5-.5-.5-.5-.5-.5-.5-.5-.5q-.3-.2-.54-.2t-.5.23l-.5.5-.5.5-.5.5-.5.5-.5.5-.5.5-.5.5-.5.5-.5.5-.5.5-.5.5-.5.5-.5.5-.5.5-.5.5-.5.5-.5.5-.5.5-.5.5-.5.5-.5.5-.5.5-.5.5-.5.5-.5.5-.5.5-.5.5-.5.5-.5.5q-.3.23-.3.5 0 .23.24.5l.5.5.5.5.5.5.5.5.5.5.5.5.5.5.5.5.5.5.5.5.5.5.5.5.5.5.5.5.5.5.5.5.5.5.5.5.5.5.5.5.5.5.5.5.5.5.5.5.5.5.5.5.5.5.5.5.5.5.5.5.5.5.5.5.5.5.5.5.5.5.5.5.5.5.5.5.5.5.5.5.5.5.5.5.5.5.5.5.5.5.5.5.5.5.5.5.5.5.5.5.5.5.5.5.5.5.5.5.5.5.5.5.5.5.5.5.5.5.5.5.5.5.5.5.5.5.5.5.5.5.5.5.5.5.5.5.5.5.5.5.5.5.5.5q.27.23.27.5 0 .23-.35.35-.4.2-.9.2H5.15l-.38-.16q-.38-.1-.63-.36t-.62-.4l-.3-.1-.38-.16q-.4-.1-.64-.37t-.62-.4l-.37-.1-.32-.15q-.4-.1-.65-.37l-.5-.5-.5-.5-.5-.5-.5-.5-.5-.5-.5-.5-.5-.5-.5-.5-.5-.5-.5-.5-.5-.5-.5-.5-.5-.5-.5-.5-.5-.5-.5-.5-.5-.5-.5-.5-.5-.5-.5-.5-.5-.5-.5-.5-.5-.5-.5-.5-.5-.5-.5-.5-.5-.5-.5-.5-.5-.5-.5-.5-.5-.5-.5-.5-.5-.5-.5-.5-.5-.5-.5-.5-.5-.5-.5-.5-.5-.5-.5-.5-.5-.5-.5-.5-.5-.5-.5-.5-.5-.5-.5-.5-.5-.5-.5-.5-.5-.5-.5-.5-.5-.5-.5-.5q-.25-.26-.62-.4l-.36-.1-.4-.14q-.4-.12-.7-.4-.23-.2-.6-.4l-.34-.1h-1l-.4-.1q-.4-.1-.64-.36t-.62-.4l-.33-.1h-30.5q-.5 0-.86-.1-.37-.14-.5-.5-.1-.4-.1-.9v-6q0-.5.1-.9.13-.36.5-.5.38-.1.88-.1h31.5l.4.1q.4.14.65.4.3.24.7.36l.37.12h2l.36.1q.4.15.64.4t.62.37l.35.1.4.1q.37.18.6.4.3.28.68.4l.37.13.4.1q.4.15.64.4l.5.5.5.5.5.5.5.5.5.5.5.5.5.5.5.5.5.5.5.5.5.5.5.5.5.5.5.5.5.5.5.5.5.5.5.5.5.5.5.5.5.5.5.5.5.5.5.5.5.5.5.5.5.5.5.5.5.5.5.5.5.5.5.5.5.5.5.5.5.5.5.5.5.5.5.5.5.5.5.5.5.5.5.5q.22.25.6.37l.36.13.4-.15q.37-.1.6-.36l.5-.5.5-.5.5-.5.5-.5.5-.5.5-.5.5-.5.5-.5.5-.5.5-.5.5-.5.5-.5.5-.5.5-.5.5-.5.5-.5.5-.5.5-.5.5-.5.5-.5.5-.5.5-.5.5-.5.5-.5.5-.5.5-.5.5-.5q.27-.27.4-.65l.14-.37v-1l-.3-.3q-.13-.4-.38-.6l-.5-.5-.5-.5-.5-.5-.5-.5-.5-.5-.5-.5-.5-.5-.5-.5-.5-.5-.5-.5-.5-.5-.5-.5-.5-.5-.5-.5-.5-.5-.5-.5-.5-.5-.5-.5-.5-.5-.5-.5-.5-.5-.5-.5-.5-.5-.5-.5-.5-.5-.5-.5-.5-.5-.5-.5-.5-.5-.5-.5-.5-.5-.5-.5-.5-.5-.5-.5-.5-.5-.5-.5-.5-.5q-.23-.3-.6-.4l-.33-.1-.4-.14q-.4-.12-.66-.37l-.5-.5-.5-.5-.5-.5-.5-.5q-.26-.3-.63-.4l-.36-.1-.38-.18q-.4-.1-.65-.4l-.5-.5-.5-.5q-.26-.28-.63-.4l-.35-.1-.36-.16q-.4-.15-.65-.4-.25-.26-.62-.4l-.36-.1-.4-.14q-.4-.1-.63-.34t-.63-.4l-.36-.1-.4-.15q-.33-.1-.6-.32t-.6-.4l-.4-.1h-1l-.35-.15q-.4-.1-.64-.36-.26-.26-.63-.4l-.36-.1h-2l-.4-.14q-.35-.13-.5-.5"/>
    <path d="M-84.87 29.4v-.5h46l.38.1q.4.14.7.4.3.24.7.36l.4.13.4.1q.4.1.65.4l.5.5.5.5.5.5.5.5.5.5.5.5.5.5.5.5.5.5.5.5.5.5.5.5.5.5.5.5.5.5.5.5.5.5.5.5.5.5.5.5.5.5.5.5.5.5.5.5.5.5.5.5.5.5.5.5.5.5.5.5.5.5.5.5.5.5.5.5.5.5.5.5.5.5.5.5.5.5.5.5.5.5.5.5.5.5.5.5.5.5.5.5.5.5.5.5.5.5.5.5.5.5.5.5q.26.2.64.3l.37.1.4.1q.4.1.64.4.26.2.64.3l.38.1.4.1q.4.12.64.4t.63.34l.36.13h73l.38-.15q.4-.1.65-.38t.6-.4l.4-.1.4-.16q.35-.1.6-.38l.5-.5.5-.5.5-.5.5-.5.5-.5.5-.5.5-.5.5-.5.5-.5.5-.5.5-.5.5-.5.5-.5.5-.5.5-.5.5-.5.5-.5.5-.5.5-.5.5-.5.5-.5.5-.5.5-.5.5-.5.5-.5.5-.5.5-.5.5-.5.5-.5.5-.5q.25-.27.63-.4l.4-.1v21h-172V29.4"/>
    <path stroke="#000" stroke-width=".26" d="M.13.13V13.6h10.45c1.7 0 2.14.02 3.17 1.05l5.95 5.95c1.18 1.18 1.37 1.18 3.07 1.18H38.8c1.92 0 1.97-.04 2.92-1l3.45-3.44c.66-.66.65-1.33-.1-2.08L32.3 2.48l-3.9 3.9L38.52 16.5H24.7c-1.47 0-1.84-.25-2.73-1.14l-5.8-5.8c-1.03-1.03-1.23-1.15-2.52-1.15H5.57V5.6h7.52c2.5 0 3 .03 4.6 1.65l4.8 4.87 3.9-3.88-5.3-5.3C19 .72 17.6.2 14.2.16z"/>
  </g>
</svg>
